<svg width="24" height="24" viewBox="0 0 24 24" fill="none" xmlns="http://www.w3.org/2000/svg">
<path d="M12.0455 24C18.4749 24 23.687 18.6274 23.687 12C23.687 5.37258 18.4749 0 12.0455 0C5.61602 0 0.403931 5.37258 0.403931 12C0.403931 18.6274 5.61602 24 12.0455 24Z" fill="#5B5B5B"/>
<path d="M12.0987 3.51221C7.97193 3.51221 5.88788 6.66072 5.88788 9.28661C5.88788 10.88 6.45465 12.2885 7.66493 12.8175C7.86566 12.9068 8.04278 12.8239 8.10182 12.5881C8.14314 12.4288 8.32616 12.0145 8.36749 11.8488C8.42653 11.6193 8.40291 11.5365 8.24351 11.3325C7.89518 10.8927 7.67674 10.4338 7.67674 9.63078C7.67674 6.9539 9.22355 5.04822 11.8567 5.04822C14.1887 5.04822 15.4698 6.60974 15.4698 8.63651C15.4698 11.3006 14.3599 13.4676 12.7127 13.4676C11.8035 13.4676 11.1246 12.7538 11.343 11.7723C11.6028 10.5996 12.1105 9.3376 12.1105 8.48992C12.1105 7.73147 11.7327 7.18973 10.9416 7.18973C10.0147 7.18973 9.26487 8.12663 9.26487 9.49694C9.26487 10.3701 9.53054 10.8035 9.53054 10.8035C9.53054 10.8035 8.59184 15.2458 8.42062 15.9979C8.09001 17.4957 8.37339 19.3249 8.39701 19.5097C8.40882 19.6181 8.5446 19.6436 8.60364 19.5607C8.6863 19.446 9.79622 17.9865 10.1741 16.5333C10.2803 16.1254 10.7881 13.9966 10.7881 13.9966C11.0892 14.6085 11.9747 15.0037 12.9075 15.0037C15.7001 15.0037 17.5952 12.4351 17.5952 8.81497C17.6011 6.06799 15.4167 3.51221 12.0987 3.51221Z" fill="white"/>
</svg>
