<svg width="25" height="20" viewBox="0 0 25 20" fill="none" xmlns="http://www.w3.org/2000/svg">
<path d="M24.4039 2.81852C23.5213 3.19924 22.5609 3.47325 21.5716 3.57997C22.5987 2.96976 23.3679 2.00573 23.7348 0.868755C22.771 1.44212 21.7151 1.84417 20.614 2.05707C20.1538 1.56509 19.5972 1.17316 18.9789 0.905696C18.3606 0.63823 17.6939 0.500965 17.0202 0.502453C14.2946 0.502453 12.1025 2.7118 12.1025 5.42302C12.1025 5.80374 12.1487 6.18446 12.2237 6.55077C8.14243 6.33733 4.50248 4.38756 2.08258 1.40235C1.64164 2.15547 1.41058 3.013 1.41342 3.8857C1.41342 5.59319 2.28159 7.09878 3.60547 7.98425C2.82529 7.95352 2.06337 7.73908 1.3817 7.35836V7.41893C1.3817 9.80999 3.07188 11.7915 5.32449 12.2472C4.90154 12.3571 4.46644 12.4133 4.02946 12.4145C3.7093 12.4145 3.40645 12.3828 3.10072 12.3395C3.72372 14.2893 5.53793 15.7054 7.69825 15.7516C6.00806 17.0755 3.89101 17.8542 1.59225 17.8542C1.1798 17.8542 0.799075 17.8398 0.403931 17.7936C2.58444 19.1925 5.17163 20.0001 7.95783 20.0001C17.0029 20.0001 21.9523 12.5068 21.9523 6.00275C21.9523 5.78932 21.9523 5.57588 21.9379 5.36245C22.8955 4.66157 23.7348 3.7934 24.4039 2.81852Z" fill="#5B5B5B"/>
</svg>
