<svg width="24" height="24" viewBox="0 0 24 24" fill="none" xmlns="http://www.w3.org/2000/svg">
<path d="M11.7607 0H11.7549C5.33344 0 0.111588 5.38199 0.111588 12C0.1076 14.5275 0.884092 16.9908 2.32873 19.0335L0.877324 23.4915L5.35382 22.017C7.25269 23.315 9.48192 24.005 11.7607 24C18.1821 24 23.4039 18.6165 23.4039 12C23.4039 5.38349 18.1821 0 11.7607 0Z" fill="#5B5B5B"/>
<path d="M18.4597 16.9003C18.1787 17.7178 17.0636 18.3958 16.1741 18.5938C15.5656 18.7273 14.7707 18.8338 12.095 17.6908C8.6725 16.2298 6.46846 12.6464 6.29668 12.4139C6.13218 12.1814 4.9137 10.5164 4.9137 8.79436C4.9137 7.07236 5.76241 6.23386 6.10452 5.87386C6.38548 5.57836 6.84987 5.44336 7.29534 5.44336C7.43946 5.44336 7.56903 5.45086 7.68549 5.45686C8.02759 5.47186 8.19937 5.49286 8.42502 6.04936C8.70598 6.74686 9.3902 8.46886 9.47172 8.64586C9.5547 8.82286 9.63768 9.06286 9.52122 9.29536C9.41203 9.53536 9.31595 9.64185 9.14417 9.84585C8.97239 10.0499 8.80934 10.2059 8.63756 10.4249C8.48034 10.6154 8.30273 10.8194 8.50072 11.1719C8.6987 11.5169 9.38292 12.6674 10.3903 13.5913C11.6903 14.7838 12.7443 15.1648 13.1213 15.3268C13.4023 15.4468 13.7371 15.4183 13.9424 15.1933C14.203 14.9038 14.5247 14.4238 14.8523 13.9514C15.0852 13.6124 15.3792 13.5703 15.6879 13.6903C16.0023 13.8028 17.6663 14.6503 18.0084 14.8258C18.3505 15.0028 18.5761 15.0868 18.6591 15.2353C18.7406 15.3838 18.7406 16.0813 18.4597 16.9003Z" fill="white"/>
</svg>
